<svg width="21" height="20" viewBox="0 0 21 20" fill="none" xmlns="http://www.w3.org/2000/svg">
<path d="M16.75 5.9375H14.5625V4.375C14.5625 3.29756 14.1345 2.26425 13.3726 1.50238C12.6108 0.740512 11.5774 0.3125 10.5 0.3125C9.42256 0.3125 8.38925 0.740512 7.62738 1.50238C6.86551 2.26425 6.4375 3.29756 6.4375 4.375V5.9375H4.25C3.8356 5.9375 3.43817 6.10212 3.14515 6.39515C2.85212 6.68817 2.6875 7.0856 2.6875 7.5V16.25C2.6875 16.6644 2.85212 17.0618 3.14515 17.3549C3.43817 17.6479 3.8356 17.8125 4.25 17.8125H16.75C17.1644 17.8125 17.5618 17.6479 17.8549 17.3549C18.1479 17.0618 18.3125 16.6644 18.3125 16.25V7.5C18.3125 7.0856 18.1479 6.68817 17.8549 6.39515C17.5618 6.10212 17.1644 5.9375 16.75 5.9375ZM8.3125 4.375C8.3125 3.79484 8.54297 3.23844 8.9532 2.8282C9.36344 2.41797 9.91984 2.1875 10.5 2.1875C11.0802 2.1875 11.6366 2.41797 12.0468 2.8282C12.457 3.23844 12.6875 3.79484 12.6875 4.375V5.9375H8.3125V4.375ZM16.4375 15.9375H4.5625V7.8125H16.4375V15.9375Z" fill="white"/>
</svg>
