<svg width="20" height="21" viewBox="0 0 20 21" fill="none" xmlns="http://www.w3.org/2000/svg">
<path d="M18.311 16.9063C17.2399 15.0264 15.5673 13.5616 13.5626 12.7477C14.5595 12 15.2959 10.9575 15.6675 9.76805C16.0391 8.57856 16.0269 7.30231 15.6329 6.12008C15.2388 4.93785 14.4827 3.90958 13.4718 3.18093C12.4608 2.45228 11.2462 2.06018 10.0001 2.06018C8.75389 2.06018 7.5393 2.45228 6.52835 3.18093C5.5174 3.90958 4.76133 4.93785 4.36726 6.12008C3.97318 7.30231 3.96107 8.57856 4.33264 9.76805C4.70421 10.9575 5.44062 12 6.43757 12.7477C4.43282 13.5616 2.76026 15.0264 1.68913 16.9063C1.62276 17.013 1.57852 17.132 1.55905 17.2561C1.53958 17.3803 1.54527 17.5071 1.57578 17.629C1.6063 17.7509 1.66102 17.8655 1.73668 17.9658C1.81234 18.0662 1.90741 18.1503 2.01623 18.2131C2.12505 18.276 2.2454 18.3164 2.37013 18.3318C2.49485 18.3472 2.62141 18.3374 2.74227 18.303C2.86313 18.2685 2.97583 18.2101 3.07366 18.1312C3.1715 18.0523 3.25248 17.9546 3.31178 17.8438C4.72741 15.3969 7.22741 13.9375 10.0001 13.9375C12.7727 13.9375 15.2727 15.3977 16.6883 17.8438C16.8169 18.0504 17.0207 18.199 17.2568 18.2581C17.4929 18.3172 17.7427 18.2822 17.9534 18.1604C18.1642 18.0387 18.3193 17.8398 18.386 17.6057C18.4528 17.3717 18.4258 17.1208 18.311 16.9063ZM5.93757 8.00002C5.93757 7.19654 6.17583 6.4111 6.62222 5.74302C7.06861 5.07495 7.70309 4.55424 8.44541 4.24676C9.18774 3.93928 10.0046 3.85883 10.7926 4.01558C11.5807 4.17234 12.3045 4.55925 12.8727 5.1274C13.4408 5.69555 13.8278 6.41942 13.9845 7.20747C14.1413 7.99552 14.0608 8.81235 13.7533 9.55468C13.4458 10.297 12.9251 10.9315 12.2571 11.3779C11.589 11.8243 10.8036 12.0625 10.0001 12.0625C8.923 12.0613 7.89041 11.6329 7.12881 10.8713C6.36722 10.1097 5.93881 9.07709 5.93757 8.00002Z" fill="#475569"/>
</svg>
